<svg width="28" height="28" viewBox="0 0 28 28" fill="none" xmlns="http://www.w3.org/2000/svg">
<path d="M27.6908 3.5812C27.4826 3.40066 27.2374 3.30986 26.9541 3.30986C26.8131 3.30986 26.5156 3.41087 26.0634 3.61022C25.6107 3.8101 25.1303 4.03255 24.6246 4.28079C24.1176 4.52741 23.5177 4.75094 22.8254 4.95082C22.1337 5.15016 21.4931 5.25118 20.9036 5.25118C20.3591 5.25118 19.8787 5.16091 19.4647 4.97983C18.0918 4.41888 16.8974 4.00031 15.8836 3.72413C14.8697 3.44848 13.7795 3.30986 12.6123 3.30986C10.5969 3.30986 8.3012 3.88156 5.72775 5.02282C5.1968 5.25386 4.81614 5.43279 4.56976 5.56389L4.32522 3.99977C4.87773 3.5812 5.23437 2.97135 5.23437 2.28305C5.23437 1.02197 4.06283 0 2.61719 0C1.17154 0 0 1.02197 0 2.28305C0 3.10568 0.50385 3.82084 1.25162 4.22276L4.78719 26.8383C4.89252 27.5116 5.55282 28 6.31106 28C6.38004 28 6.45026 27.9962 6.5211 27.9882C7.36372 27.8872 7.9538 27.2107 7.83862 26.4756L6.41762 17.3859C8.996 16.2699 11.2264 15.7073 13.1026 15.7073C13.899 15.7073 14.6757 15.811 15.4327 16.0206C16.1903 16.2307 16.8205 16.4585 17.3218 16.7051C17.8232 16.9523 18.4152 17.1812 19.0958 17.3897C19.7776 17.5992 20.4509 17.704 21.1155 17.704C22.7946 17.704 24.8057 17.1522 27.1494 16.049C27.4438 15.9158 27.6594 15.7847 27.7955 15.6563C27.9316 15.5279 28 15.3452 28 15.1077V4.22329C28 3.97666 27.8971 3.76228 27.6908 3.5812Z" fill="#39AED4"/>
</svg>
