<svg width="30" height="30" viewBox="0 0 30 30" fill="none" xmlns="http://www.w3.org/2000/svg">
<path fill-rule="evenodd" clip-rule="evenodd" d="M15 6.63026C14.4548 4.50992 11.6855 3.25034 9.54869 3.25034C5.33471 3.25034 1.91699 6.52112 1.91699 10.8822C1.91699 19.059 9.69041 21.2397 13.9098 26.1456C13.9475 26.2 13.9918 26.2443 14.0407 26.2926C14.5746 26.8217 15.4361 26.8217 15.97 26.2926C16.0195 26.2442 16.052 26.2 16.0903 26.1456C20.315 21.2289 28.0831 19.092 28.0831 10.8822C28.0831 6.52112 24.6653 3.25034 20.4512 3.25034C18.3143 3.25034 15.5452 4.50992 15 6.63026ZM20.8059 8.15648C20.2933 8.0639 19.9063 7.61672 19.9063 7.08278C19.9063 6.48332 20.3972 5.97596 20.9963 5.97596C21.8632 5.97596 22.915 6.59198 23.7983 7.46456C24.6979 8.35832 25.3574 9.55232 25.3574 10.3371C25.3574 10.9365 24.8666 11.4273 24.2671 11.4273C23.7328 11.4273 23.2861 11.0403 23.1928 10.5276C22.9202 9.43208 21.9833 8.42906 20.8059 8.15648Z" fill="#0A65DC"/>
</svg>
