<svg width="56" height="47" viewBox="0 0 56 47" fill="none" xmlns="http://www.w3.org/2000/svg">
<path d="M14 11.2604C16.8995 11.2604 19.25 9.28766 19.25 6.85416C19.25 4.42065 16.8995 2.44791 14 2.44791C11.1005 2.44791 8.75 4.42065 8.75 6.85416C8.75 9.28766 11.1005 11.2604 14 11.2604Z" fill="#95979A"/>
<path d="M42 11.2604C44.8995 11.2604 47.25 9.28766 47.25 6.85416C47.25 4.42065 44.8995 2.44791 42 2.44791C39.1005 2.44791 36.75 4.42065 36.75 6.85416C36.75 9.28766 39.1005 11.2604 42 11.2604Z" fill="#95979A"/>
<path d="M38.5 28.1021V23.6958C38.5 23.0104 38.15 22.325 37.45 21.9333C36.05 20.9542 34.1833 20.2687 32.3167 19.8771C31.0333 19.5833 29.5167 19.2896 28 19.2896C26.6 19.2896 25.0833 19.4854 23.6833 19.8771C21.8167 20.2687 20.0667 21.0521 18.55 21.9333C17.85 22.4229 17.5 23.0104 17.5 23.6958V28.1021H38.5Z" fill="#95979A"/>
<path d="M28 18.1146C30.8995 18.1146 33.25 16.1418 33.25 13.7083C33.25 11.2748 30.8995 9.30206 28 9.30206C25.1005 9.30206 22.75 11.2748 22.75 13.7083C22.75 16.1418 25.1005 18.1146 28 18.1146Z" fill="#95979A"/>
<path d="M51.4501 15.0792C50.0501 14.1 48.1834 13.4146 46.3167 13.0229C45.0334 12.7292 43.5167 12.4354 42.0001 12.4354C40.6001 12.4354 39.0834 12.6313 37.6834 13.0229C36.9834 13.2188 36.2834 13.4146 35.5834 13.7083V13.8063C35.5834 15.4708 34.7667 17.0375 33.4834 18.1146C35.7001 18.7021 37.4501 19.4854 38.8501 20.3667C39.2001 20.6604 39.5501 20.8563 39.7834 21.2479H52.5001V16.8417C52.5001 16.1563 52.1501 15.4708 51.4501 15.0792Z" fill="#95979A"/>
<path d="M17.15 20.3667C18.7833 19.3875 20.65 18.6042 22.5167 18.1146C21.2333 16.9396 20.4167 15.4708 20.4167 13.8063C20.4167 13.7083 20.4167 13.7083 20.4167 13.6104C19.7167 13.4146 19.0167 13.1208 18.3167 13.0229C17.0333 12.7292 15.5167 12.4354 14 12.4354C12.6 12.4354 11.0833 12.6313 9.68333 13.0229C7.81667 13.5125 6.06667 14.1979 4.55 15.0792C3.85 15.4708 3.5 16.1563 3.5 16.8417V21.2479H16.1C16.45 20.8563 16.6833 20.6604 17.15 20.3667Z" fill="#95979A"/>
</svg>
