<svg width="46" height="47" viewBox="0 0 46 47" fill="none" xmlns="http://www.w3.org/2000/svg">
<path d="M31.7027 23.6076C34.2336 23.7035 36.2994 24.8072 37.9002 26.9187L41.0408 26.9315C42.322 26.9368 43.4015 26.5946 44.2794 25.9052C45.1572 25.2157 45.5988 24.2035 45.6043 22.8687C45.629 16.8278 44.6726 13.8034 42.7352 13.7955C42.6414 13.7951 42.3008 13.9734 41.7134 14.3304C41.126 14.6874 40.3628 15.0479 39.4238 15.412C38.4848 15.7761 37.5544 15.9562 36.6325 15.9525C35.5857 15.9482 34.5474 15.7471 33.5178 15.3493C33.5933 15.9828 33.6301 16.5477 33.628 17.044C33.6183 19.4227 32.9765 21.6105 31.7027 23.6076ZM6.53443 39.8562C6.52603 41.9098 7.0897 43.5336 8.22544 44.7276C9.36119 45.9216 10.8744 46.5225 12.765 46.5302L33.2492 46.6141C35.1398 46.6218 36.6578 46.0334 37.8033 44.8487C38.9488 43.664 39.5258 42.0449 39.5342 39.9913C39.5379 39.0843 39.5142 38.1986 39.463 37.3342C39.4119 36.4698 39.3063 35.5367 39.1463 34.5349C38.9864 33.5331 38.7831 32.6039 38.5366 31.7472C38.2902 30.8905 37.9576 30.0549 37.5391 29.2403C37.1205 28.4257 36.639 27.7307 36.0945 27.1551C35.55 26.5796 34.8839 26.1191 34.0962 25.7736C33.3086 25.4281 32.4382 25.2534 31.4851 25.2495C31.3288 25.2489 30.9921 25.4315 30.475 25.7973C29.9579 26.1631 29.3859 26.5715 28.759 27.0224C28.1322 27.4734 27.2946 27.8807 26.2462 28.2443C25.1978 28.6079 24.1424 28.7876 23.0799 28.7832C22.0174 28.7789 20.9635 28.5906 19.9181 28.2184C18.8728 27.8462 18.0385 27.4321 17.4154 26.976C16.7922 26.5199 16.2236 26.1069 15.7095 25.7369C15.1954 25.3668 14.8602 25.1815 14.7039 25.1808C13.7508 25.1769 12.879 25.3445 12.0886 25.6835C11.2981 26.0226 10.6283 26.4776 10.0791 27.0486C9.52986 27.6197 9.04265 28.3108 8.61745 29.1219C8.19225 29.9331 7.8529 30.7659 7.5994 31.6206C7.3459 32.4752 7.13507 33.4027 6.96691 34.4032C6.79875 35.4036 6.68556 36.3358 6.62734 37.1998C6.56911 38.0638 6.53815 38.9492 6.53443 39.8562ZM30.6684 7.17461C30.661 8.98859 31.2406 10.5397 32.4072 11.828C33.5738 13.1162 34.9852 13.7638 36.6415 13.7705C38.2977 13.7773 39.7144 13.1414 40.8915 11.8627C42.0686 10.584 42.6609 9.03771 42.6683 7.22374C42.6757 5.40976 42.0961 3.85864 40.9295 2.57037C39.7629 1.28211 38.3515 0.634581 36.6953 0.627802C35.039 0.621022 33.6224 1.25697 32.4452 2.53564C31.2681 3.81432 30.6758 5.36064 30.6684 7.17461ZM14.1282 16.9641C14.1171 19.6851 14.9865 22.0118 16.7364 23.9442C18.4863 25.8766 20.6034 26.8479 23.0878 26.858C25.5721 26.8682 27.6971 25.9143 29.4628 23.9963C31.2285 22.0783 32.1169 19.7588 32.1281 17.0378C32.1392 14.3169 31.2698 11.9902 29.5199 10.0578C27.77 8.12537 25.6528 7.15408 23.1685 7.14391C20.6841 7.13374 18.5591 8.08767 16.7934 10.0057C15.0278 11.9237 14.1393 14.2432 14.1282 16.9641ZM0.604674 22.6845C0.59921 24.0193 1.03256 25.035 1.90471 25.7317C2.77687 26.4284 3.85356 26.7793 5.1348 26.7845L8.2754 26.7974C9.89338 24.6991 11.9682 23.6123 14.4997 23.5371C13.2423 21.5297 12.6185 19.3367 12.6282 16.958C12.6302 16.4617 12.6716 15.8972 12.7523 15.2643C11.7195 15.6537 10.6796 15.8462 9.63276 15.8419C8.71089 15.8382 7.78197 15.6504 6.84598 15.2786C5.90999 14.9069 5.14977 14.5401 4.56531 14.1783C3.98085 13.8165 3.64174 13.6355 3.54799 13.6351C1.61051 13.6272 0.629402 16.6436 0.604674 22.6845ZM3.66864 7.06409C3.66121 8.87807 4.24081 10.4292 5.40742 11.7175C6.57403 13.0057 7.98545 13.6532 9.64169 13.66C11.2979 13.6668 12.7146 13.0309 13.8917 11.7522C15.0688 10.4735 15.6611 8.92719 15.6685 7.11321C15.676 5.29924 15.0964 3.74812 13.9298 2.45985C12.7632 1.17158 11.3517 0.524059 9.69549 0.517279C8.03925 0.510499 6.62258 1.14645 5.44546 2.42512C4.26834 3.7038 3.67607 5.25012 3.66864 7.06409Z" fill="#95979A"/>
</svg>
