<svg width="56" height="46" viewBox="0 0 56 46" fill="none" xmlns="http://www.w3.org/2000/svg">
<path d="M52.5 21.5625C52.1352 21.5605 51.7804 21.4651 51.485 21.2894L28 7.51811L4.51495 21.2894C4.13818 21.4727 3.69144 21.5333 3.26293 21.4592C2.83441 21.3852 2.45526 21.1819 2.20033 20.8894C1.94539 20.5969 1.8332 20.2366 1.88589 19.8795C1.93858 19.5224 2.15234 19.1946 2.48495 18.9606L26.985 4.58561C27.2813 4.41227 27.6361 4.31912 28 4.31912C28.3638 4.31912 28.7186 4.41227 29.015 4.58561L53.515 18.9606C53.8137 19.1383 54.0365 19.389 54.1515 19.6769C54.2665 19.9648 54.2678 20.2751 54.1553 20.5637C54.0427 20.8522 53.822 21.1042 53.5248 21.2835C53.2275 21.4629 52.8688 21.5605 52.5 21.5625Z" fill="#95979A"/>
<path d="M8.75 12.9375C8.28587 12.9375 7.84075 12.786 7.51256 12.5165C7.18437 12.2469 7 11.8812 7 11.5V5.75C7 5.36875 7.18437 5.00312 7.51256 4.73353C7.84075 4.46395 8.28587 4.3125 8.75 4.3125H15.75C16.2141 4.3125 16.6592 4.46395 16.9874 4.73353C17.3156 5.00312 17.5 5.36875 17.5 5.75C17.5 6.13125 17.3156 6.49688 16.9874 6.76647C16.6592 7.03605 16.2141 7.1875 15.75 7.1875H10.5V11.5C10.5 11.8812 10.3156 12.2469 9.98744 12.5165C9.65925 12.786 9.21413 12.9375 8.75 12.9375Z" fill="#95979A"/>
<path d="M43.75 41.6875H35C34.5359 41.6875 34.0908 41.5361 33.7626 41.2665C33.4344 40.9969 33.25 40.6312 33.25 40.25V30.1875H22.75V40.25C22.75 40.6312 22.5656 40.9969 22.2374 41.2665C21.9092 41.5361 21.4641 41.6875 21 41.6875H12.25C10.8576 41.6875 9.52226 41.2331 8.53769 40.4244C7.55312 39.6156 7 38.5187 7 37.375V23C7 22.6188 7.18437 22.2531 7.51256 21.9835C7.84075 21.714 8.28587 21.5625 8.75 21.5625C9.21413 21.5625 9.65925 21.714 9.98744 21.9835C10.3156 22.2531 10.5 22.6188 10.5 23V37.375C10.5 37.7562 10.6844 38.1219 11.0126 38.3915C11.3408 38.6611 11.7859 38.8125 12.25 38.8125H19.25V28.75C19.25 28.3688 19.4344 28.0031 19.7626 27.7335C20.0908 27.4639 20.5359 27.3125 21 27.3125H35C35.4641 27.3125 35.9092 27.4639 36.2374 27.7335C36.5656 28.0031 36.75 28.3688 36.75 28.75V38.8125H43.75C44.2141 38.8125 44.6592 38.6611 44.9874 38.3915C45.3156 38.1219 45.5 37.7562 45.5 37.375V23C45.5 22.6188 45.6844 22.2531 46.0126 21.9835C46.3408 21.714 46.7859 21.5625 47.25 21.5625C47.7141 21.5625 48.1592 21.714 48.4874 21.9835C48.8156 22.2531 49 22.6188 49 23V37.375C49 38.5187 48.4469 39.6156 47.4623 40.4244C46.4777 41.2331 45.1424 41.6875 43.75 41.6875V41.6875Z" fill="#95979A"/>
</svg>
