<svg width="45" height="46" viewBox="0 0 45 46" fill="none" xmlns="http://www.w3.org/2000/svg">
<path d="M43.4531 20.125L39.375 15.9591V5.75C39.375 4.16875 38.1094 2.875 36.5625 2.875H33.75C32.2031 2.875 30.9375 4.16875 30.9375 5.75V7.33987L25.3125 1.59563C24.5447 0.853875 23.8416 0 22.5 0C21.1584 0 20.4553 0.853875 19.6875 1.59563L1.54688 20.125C0.669375 21.0594 0 21.7408 0 23C0 24.6186 1.215 25.875 2.8125 25.875H5.625V43.125C5.625 44.7063 6.89062 46 8.4375 46H16.875V31.625C16.875 30.0437 18.1406 28.75 19.6875 28.75H25.3125C26.8594 28.75 28.125 30.0437 28.125 31.625V46H36.5625C38.1094 46 39.375 44.7063 39.375 43.125V25.875H42.1875C43.785 25.875 45 24.6186 45 23C45 21.7408 44.3306 21.0594 43.4531 20.125Z" fill="#95979A"/>
</svg>
