<svg width="10" height="10" viewBox="0 0 10 10" fill="none" xmlns="http://www.w3.org/2000/svg">
<path d="M9.65625 4.375L8.75 3.46938V1.25C8.75 0.90625 8.46875 0.625 8.125 0.625H7.5C7.15625 0.625 6.875 0.90625 6.875 1.25V1.59562L5.625 0.346875C5.45437 0.185625 5.29812 0 5 0C4.70188 0 4.54563 0.185625 4.375 0.346875L0.34375 4.375C0.14875 4.57812 0 4.72625 0 5C0 5.35188 0.27 5.625 0.625 5.625H1.25V9.375C1.25 9.71875 1.53125 10 1.875 10H3.75V6.875C3.75 6.53125 4.03125 6.25 4.375 6.25H5.625C5.96875 6.25 6.25 6.53125 6.25 6.875V10H8.125C8.46875 10 8.75 9.71875 8.75 9.375V5.625H9.375C9.73 5.625 10 5.35188 10 5C10 4.72625 9.85125 4.57812 9.65625 4.375Z" fill="#95979A"/>
</svg>
