<svg width="45" height="46" viewBox="0 0 45 46" fill="none" xmlns="http://www.w3.org/2000/svg">
<path d="M12.2727 46V40.25H20.4545V46H12.2727ZM24.5455 46H32.7273V40.25H24.5455V46ZM45 23V28.75V40.25H40.9091V28.75H36.8182V40.25H32.7273V34.5H12.2727V40.25H8.18182V28.75H4.09091V40.25H0V28.75V23H4.09091V17.25H8.18182V11.5H12.2727V5.75H16.3636V11.5H28.6364V5.75H32.7273V11.5H36.8182V17.25H40.9091V23H45ZM16.3636 17.25H12.2727V23H16.3636V17.25ZM32.7273 17.25H28.6364V23H32.7273V17.25ZM36.8182 0H32.7273V5.75H36.8182V0ZM8.18182 0V5.75H12.2727V0H8.18182Z" fill="#95979A"/>
</svg>
