<svg width="45" height="35" viewBox="0 0 45 35" fill="none" xmlns="http://www.w3.org/2000/svg">
<path d="M0 17.4062C0 27.5937 4.9721 35 11.1194 35H33.8806C40.0279 35 45 27.5937 45 17.4062C45 7.21875 40.0279 0 33.8806 0H11.1194C4.9721 0 0 7.23437 0 17.4062ZM37.4464 13.9531C38.5212 13.9531 39.3951 15.2813 39.3951 16.9219C39.3951 18.5625 38.5212 19.8906 37.4464 19.8906C36.3716 19.8906 35.4978 18.5625 35.4978 16.9219C35.4978 15.2813 36.3716 13.9531 37.4464 13.9531ZM33.1775 7.46875C34.2623 7.46875 35.1362 8.79688 35.1362 10.4375C35.1362 12.0781 34.2623 13.4063 33.1775 13.4063C32.1027 13.4063 31.2288 12.0781 31.2288 10.4375C31.2288 8.79688 32.1027 7.46875 33.1775 7.46875ZM33.1775 20.4531C34.2623 20.4531 35.1362 21.7656 35.1362 23.4219C35.1362 25.0625 34.2623 26.375 33.1775 26.375C32.1027 26.375 31.2288 25.0469 31.2288 23.4219C31.2388 21.7656 32.1027 20.4531 33.1775 20.4531ZM28.9085 13.9531C29.9933 13.9531 30.8672 15.2813 30.8672 16.9219C30.8672 18.5625 29.9933 19.8906 28.9085 19.8906C27.8337 19.8906 26.9598 18.5625 26.9598 16.9219C26.9598 15.2813 27.8337 13.9531 28.9085 13.9531ZM5.625 15.8281C5.625 15.4063 5.8058 15 6.05692 15H6.16741H9.64286V9.03125V8.9375C9.64286 8.5 9.85379 8.125 10.125 8.125H12.3248C12.596 8.125 12.8672 8.5 12.8672 8.9375V9.01562V15H16.6038H16.6641C16.9353 15 17.1864 15.3906 17.1864 15.8281V19.2188C17.1864 19.6719 16.9353 20 16.6641 20H16.6138H12.8571V26.0313V26.1094C12.8571 26.5469 12.5859 26.875 12.3147 26.875H10.115C9.85379 26.875 9.63281 26.5781 9.63281 26.1719V26V20H6.13728H6.08705C5.81585 20 5.625 19.6719 5.625 19.2188V15.8281Z" fill="#95979A"/>
</svg>
