<svg width="28" height="28" viewBox="0 0 28 28" fill="none" xmlns="http://www.w3.org/2000/svg">
<path d="M23.8 0H4.2C3.08609 0 2.0178 0.442499 1.23015 1.23015C0.442499 2.0178 0 3.08609 0 4.2V23.8C0 24.9139 0.442499 25.9822 1.23015 26.7698C2.0178 27.5575 3.08609 28 4.2 28H23.8C24.9139 28 25.9822 27.5575 26.7698 26.7698C27.5575 25.9822 28 24.9139 28 23.8V4.2C28 3.08609 27.5575 2.0178 26.7698 1.23015C25.9822 0.442499 24.9139 0 23.8 0ZM11.2 7C11.7538 7 12.2951 7.16422 12.7556 7.47189C13.2161 7.77955 13.5749 8.21685 13.7869 8.72849C13.9988 9.24012 14.0542 9.80311 13.9462 10.3463C13.8382 10.8894 13.5715 11.3883 13.1799 11.7799C12.7883 12.1715 12.2894 12.4382 11.7463 12.5462C11.2031 12.6542 10.6401 12.5988 10.1285 12.3869C9.61685 12.1749 9.17955 11.8161 8.87189 11.3556C8.56422 10.8951 8.4 10.3538 8.4 9.8C8.4 9.05739 8.695 8.3452 9.2201 7.8201C9.7452 7.295 10.4574 7 11.2 7ZM7.686 25.2H4.2C3.90367 25.1949 3.61659 25.096 3.3801 24.9173C3.14361 24.7387 2.9699 24.4896 2.884 24.206L7.21 19.012C7.34945 18.856 7.51975 18.7307 7.71013 18.644C7.9005 18.5572 8.10681 18.5109 8.316 18.508C8.5286 18.5123 8.73742 18.5649 8.92663 18.662C9.11584 18.759 9.28046 18.8979 9.408 19.068L10.808 20.93L7.686 25.2ZM25.2 23.8C25.2 24.1713 25.0525 24.5274 24.79 24.79C24.5274 25.0525 24.1713 25.2 23.8 25.2H11.2L18.858 14.672C18.9767 14.5081 19.1296 14.372 19.306 14.2729C19.4825 14.1738 19.6783 14.1141 19.88 14.098C20.0828 14.0812 20.2868 14.1089 20.4778 14.179C20.6688 14.2491 20.8422 14.36 20.986 14.504L25.2 18.774V23.8Z" fill="#45BD62"/>
</svg>
