<svg width="25" height="25" viewBox="0 0 25 25" fill="none" xmlns="http://www.w3.org/2000/svg">
<path d="M16.8213 14.5508C17.5537 13.3984 17.9834 12.0313 17.9834 10.5615C17.9834 6.45508 14.6582 3.125 10.5566 3.125C6.4502 3.125 3.125 6.45508 3.125 10.5615C3.125 14.668 6.4502 17.998 10.5518 17.998C12.041 17.998 13.4277 17.5586 14.5898 16.8066L14.9268 16.5723L20.2295 21.875L21.875 20.2002L16.5771 14.8975L16.8213 14.5508ZM14.7168 6.40625C15.8252 7.51465 16.4355 8.98926 16.4355 10.5566C16.4355 12.124 15.8252 13.5986 14.7168 14.707C13.6084 15.8154 12.1338 16.4258 10.5664 16.4258C8.99902 16.4258 7.52441 15.8154 6.41602 14.707C5.30762 13.5986 4.69727 12.124 4.69727 10.5566C4.69727 8.98926 5.30762 7.51465 6.41602 6.40625C7.52441 5.29785 8.99902 4.6875 10.5664 4.6875C12.1338 4.6875 13.6084 5.29785 14.7168 6.40625Z" fill="#95979A"/>
</svg>
