<svg width="28" height="18" viewBox="0 0 28 18" fill="none" xmlns="http://www.w3.org/2000/svg">
<path d="M27.0667 2C26.8334 1.88334 26.6 1.88334 26.4834 2L22.4 5.15V3.75C22.4 1.88334 20.8834 0.366669 19.0167 0.366669H3.96671C2.10004 0.366669 0.583374 1.88334 0.583374 3.75V14.25C0.583374 16.1167 2.10004 17.6333 3.96671 17.6333H19.0167C20.8834 17.6333 22.4 16.1167 22.4 14.25V12.85L26.4834 16C26.6 16.1167 26.8334 16.1167 27.0667 16C27.3 15.8833 27.4167 15.7667 27.4167 15.5333V2.46667C27.4167 2.23334 27.3 2.11667 27.0667 2Z" fill="#EF2848"/>
</svg>
