<svg width="48" height="36" viewBox="0 0 48 36" fill="none" xmlns="http://www.w3.org/2000/svg">
<path d="M44.1231 5.7375H36.3346L31.6731 1.1475C31.6731 1.1475 31.65 1.125 31.6385 1.125L31.6154 1.1025C30.9231 0.4275 29.9885 0 28.9269 0H19.2346C18.1038 0 17.1 0.4725 16.3962 1.22625V1.2375L11.8385 5.7375H3.87692C1.73077 5.7375 0 7.38 0 9.4725V32.2087C0 34.3012 1.73077 36 3.87692 36H44.1231C46.2577 36 48 34.3012 48 32.2087V9.4725C48 7.38 46.2577 5.7375 44.1231 5.7375ZM24 30.3187C18.1269 30.3187 13.3385 25.6387 13.3385 19.9012C13.3385 14.1525 18.1269 9.48375 24 9.48375C29.8846 9.48375 34.6615 14.1525 34.6615 19.9012C34.6615 25.6387 29.8846 30.3187 24 30.3187ZM43.3962 11.7562C42.5077 11.7562 41.7808 11.0475 41.7808 10.17C41.7808 9.2925 42.5077 8.58375 43.3962 8.58375C44.2846 8.58375 45.0115 9.2925 45.0115 10.17C45.0115 11.0475 44.2846 11.7562 43.3962 11.7562Z" fill="#95979A"/>
<path d="M24 12.0262C19.5462 12.0262 15.9462 15.5475 15.9462 19.9012C15.9462 24.2437 19.5462 27.7762 24 27.7762C28.4423 27.7762 32.0539 24.255 32.0539 19.9012C32.0539 15.5475 28.4423 12.0262 24 12.0262Z" fill="#95979A"/>
</svg>
