<svg width="56" height="35" viewBox="0 0 56 35" fill="none" xmlns="http://www.w3.org/2000/svg">
<g clip-path="url(#clip0)">
<path d="M25.2941 12.3449L32.624 15.5439C36.5574 17.2603 36.3015 17.3233 32.64 18.9842L25.9932 21.9448C21.9294 23.9294 22.1004 24.2422 22.1004 19.9218V14.4114C22.1004 12.3449 22.1004 8.96395 22.1004 6.89712V4.30899C22.1004 2.24291 20.1249 0.552612 17.7118 0.552612H9.42297C4.59624 0.552612 0.646118 3.93358 0.646118 8.06611V26.9328C0.646118 31.0653 4.59624 34.447 9.42297 34.447H46.5774C51.4041 34.447 55.3534 31.0653 55.3534 26.9328V8.06611C55.3534 3.93358 51.4041 0.552612 46.5774 0.552612H25.3673" stroke="#95979A" stroke-width="3.0011" stroke-miterlimit="10" stroke-linecap="round" stroke-linejoin="round"/>
</g>
<defs>
<clipPath id="clip0">
<rect width="56" height="35" fill="white"/>
</clipPath>
</defs>
</svg>
