<svg width="37" height="25" viewBox="0 0 37 25" fill="none" xmlns="http://www.w3.org/2000/svg">
<path d="M36.3971 2.96592C36.0841 2.80376 35.771 2.80376 35.6145 2.96592L30.1363 7.3443V5.39835C30.1363 2.80376 28.1015 0.695648 25.5971 0.695648H5.40583C2.90148 0.695648 0.866699 2.80376 0.866699 5.39835V19.9929C0.866699 22.5875 2.90148 24.6956 5.40583 24.6956H25.5971C28.1015 24.6956 30.1363 22.5875 30.1363 19.9929V18.047L35.6145 22.4254C35.771 22.5875 36.0841 22.5875 36.3971 22.4254C36.7102 22.2632 36.8667 22.1011 36.8667 21.7767V3.61457C36.8667 3.29024 36.7102 3.12808 36.3971 2.96592Z" fill="#95979A"/>
</svg>
